<?xml version="1.0" standalone="no"?>
<!DOCTYPE svg PUBLIC "-//W3C//DTD SVG 20010904//EN"
 "http://www.w3.org/TR/2001/REC-SVG-20010904/DTD/svg10.dtd">
<svg version="1.0" xmlns="http://www.w3.org/2000/svg"
 width="192.000000pt" height="182.000000pt" viewBox="0 0 192.000000 182.000000"
 preserveAspectRatio="xMidYMid meet">

<g transform="translate(0.000000,182.000000) scale(0.100000,-0.100000)"
fill="#000000" stroke="none">
<path d="M557 1767 c-9 -7 -17 -23 -19 -37 -2 -15 -11 -26 -25 -30 -17 -4 -20
-9 -13 -19 6 -12 14 -12 32 -4 14 6 46 7 83 2 104 -13 145 -11 145 7 0 13 -11
16 -67 14 -93 -4 -106 -2 -100 13 3 6 8 20 12 29 9 23 -26 42 -48 25z m26 -32
c-3 -8 -9 -15 -14 -15 -10 0 -12 24 -3 33 11 11 24 -3 17 -18z"/>
<path d="M1375 1766 c-15 -11 -16 -16 -5 -35 14 -28 9 -34 -27 -33 -16 0 -150
4 -299 8 l-271 7 -6 -33 c-4 -18 -7 -182 -7 -365 0 -308 1 -333 18 -340 9 -4
59 -22 111 -41 l93 -35 54 21 c30 11 79 29 109 41 l55 20 0 343 0 342 108 10
c71 7 115 7 130 0 18 -7 26 -6 32 5 7 10 4 15 -13 19 -15 4 -23 15 -25 33 -4
34 -33 51 -57 33z m35 -32 c0 -8 -4 -14 -9 -14 -11 0 -22 26 -14 34 9 9 23 -3
23 -20z m-280 -347 c0 -16 -47 -63 -55 -55 -3 3 6 13 20 22 25 16 34 36 16 36
-5 0 -24 -12 -41 -26 -24 -20 -28 -29 -18 -35 10 -7 9 -9 -5 -9 -18 0 -56 -65
-44 -76 3 -4 19 1 34 10 l28 17 -24 -20 c-45 -40 -62 -21 -36 42 12 30 -13 19
-30 -13 -8 -16 -29 -36 -45 -45 -41 -21 -51 -19 -15 3 37 23 60 50 51 59 -4 4
-18 -5 -32 -20 -27 -29 -39 -33 -50 -16 -4 7 4 20 17 30 l24 19 -25 0 c-15 0
-32 -6 -40 -12 -12 -11 -12 -10 -1 5 15 19 51 23 67 7 15 -15 60 3 73 28 9 17
6 22 -18 32 -16 6 -38 10 -48 8 -24 -4 -29 -35 -6 -41 17 -4 17 -5 0 -6 -23
-1 -33 25 -16 45 9 11 22 14 41 10 15 -3 41 -9 57 -12 l29 -6 -21 -21 c-11
-11 -16 -22 -10 -24 5 -2 28 14 50 37 40 40 73 52 73 27z m-256 -149 c8 -5 7
-8 -1 -8 -7 0 -17 9 -23 19 -14 27 -12 41 2 16 6 -11 16 -23 22 -27z"/>
<path d="M900 1275 c-7 -8 -8 -15 -2 -15 5 0 15 7 22 15 7 8 8 15 2 15 -5 0
-15 -7 -22 -15z"/>
<path d="M504 851 c-16 -10 -48 -38 -71 -64 -40 -44 -83 -69 -83 -48 0 5 14
23 31 40 27 27 28 31 11 31 -11 0 -41 9 -67 20 -58 25 -87 25 -108 2 -32 -35
-15 -82 28 -82 18 0 17 2 -5 13 -35 18 -39 54 -6 67 19 7 40 4 85 -12 l59 -21
-27 -38 c-32 -46 -79 -58 -127 -34 -41 20 -89 4 -109 -35 -42 -81 69 -137 145
-73 18 14 43 44 56 65 15 23 32 38 44 38 20 0 20 0 0 -32 -23 -38 -26 -86 -6
-94 8 -3 26 2 41 12 25 17 28 17 37 1 15 -27 35 -20 88 29 53 49 63 49 30 -1
-31 -47 -23 -53 10 -8 28 38 57 59 67 49 3 -2 -6 -18 -18 -35 -17 -23 -20 -34
-12 -42 13 -13 59 16 93 58 24 31 39 24 16 -9 -18 -25 -21 -58 -6 -58 6 0 34
21 62 48 l52 47 -22 -36 c-18 -30 -20 -38 -9 -48 8 -6 17 -8 20 -4 4 3 7 4 7
1 0 -4 -20 -19 -45 -35 -25 -15 -48 -38 -52 -51 -13 -53 25 -39 72 26 17 22
37 44 46 47 26 9 101 66 96 72 -3 3 -24 -10 -46 -28 -23 -18 -43 -30 -46 -27
-3 2 9 23 26 46 39 53 30 54 -17 2 -20 -22 -40 -40 -45 -40 -14 0 -10 26 6 40
18 15 20 40 3 40 -7 0 -34 -21 -60 -47 -46 -45 -70 -43 -27 3 20 21 20 23 4
48 -17 25 -41 26 -31 1 2 -7 -13 -30 -35 -51 -41 -40 -62 -41 -35 -2 26 37 20
47 -28 45 -35 -2 -49 -8 -66 -30 -27 -34 -76 -61 -85 -47 -3 6 2 13 12 17 45
16 68 55 38 67 -10 3 -36 -13 -71 -45 -58 -52 -83 -55 -70 -7 13 51 42 83 94
101 47 17 112 73 112 96 0 24 -27 30 -56 12z m36 -16 c0 -19 -30 -49 -70 -70
-54 -28 -56 -11 -6 38 49 48 76 59 76 32z m-317 -122 c4 -3 -7 -14 -23 -24
-36 -22 -41 -59 -8 -59 24 0 58 27 58 45 0 13 22 25 46 25 12 0 12 -5 -1 -30
-31 -60 -123 -91 -159 -54 -21 20 -20 63 1 86 16 17 73 25 86 11z m17 -30 c0
-12 -33 -43 -47 -43 -20 0 -16 17 9 34 24 17 38 20 38 9z m245 -23 c-10 -11
-25 -20 -33 -20 -12 0 -12 4 3 20 10 11 25 20 33 20 12 0 12 -4 -3 -20z m288
-124 c-10 -13 -26 -29 -35 -35 -30 -19 -22 15 10 38 36 27 47 26 25 -3z"/>
<path d="M1223 798 c-22 -29 -54 -77 -72 -106 -52 -82 -106 -113 -139 -80 -34
34 10 113 60 106 44 -6 32 -78 -13 -78 -11 0 -19 7 -19 15 0 8 5 15 10 15 6 0
10 5 10 11 0 8 -5 8 -15 -1 -19 -16 -19 -34 0 -50 12 -10 20 -9 39 3 46 31 38
97 -12 97 -46 0 -82 -34 -82 -79 0 -45 14 -61 55 -61 39 0 92 50 136 127 17
29 32 53 34 53 5 0 -22 -64 -52 -123 -30 -59 -24 -71 11 -24 17 22 24 41 20
53 -4 13 -3 15 3 6 7 -10 23 6 62 59 62 85 78 87 22 3 -49 -75 -69 -130 -54
-145 9 -9 18 -8 37 5 24 15 26 15 26 0 0 -10 5 -14 15 -10 8 3 22 9 30 12 8 3
15 1 15 -5 0 -21 21 -11 70 35 31 29 50 41 50 32 0 -9 -7 -21 -15 -28 -8 -7
-15 -18 -15 -26 0 -21 21 -27 38 -11 14 15 16 15 27 0 11 -14 14 -14 37 1 23
15 26 15 31 1 8 -20 26 -19 49 2 17 15 19 15 32 -3 14 -18 16 -18 43 -2 27 16
30 16 39 0 10 -15 13 -15 40 3 16 11 33 18 37 17 13 -4 47 18 47 30 0 9 -3 9
-12 0 -18 -18 -26 -15 -30 11 -5 37 -39 32 -83 -13 -42 -43 -80 -55 -67 -21 4
10 21 30 39 45 35 29 93 112 93 133 0 43 -72 -22 -111 -100 -25 -49 -67 -97
-86 -97 -25 0 -13 30 32 74 47 48 85 102 85 124 0 42 -72 -24 -111 -101 -25
-49 -67 -97 -86 -97 -18 0 -17 7 9 49 l21 36 -41 -42 c-43 -46 -77 -60 -48
-20 27 37 29 46 12 62 -15 16 -41 12 -31 -5 5 -8 -64 -80 -77 -80 -12 0 -10
10 14 49 l21 36 -46 -44 c-54 -52 -69 -49 -37 6 l23 38 -44 -42 c-50 -48 -74
-56 -64 -20 15 48 62 124 106 169 35 37 41 48 27 48 -23 0 -103 -73 -135 -123
-39 -62 -38 -36 2 43 20 40 34 74 32 76 -2 3 -22 -19 -44 -48z m469 -30 c-22
-35 -82 -97 -82 -85 0 22 89 132 98 122 2 -2 -5 -19 -16 -37z m80 0 c-22 -35
-82 -97 -82 -85 0 22 89 132 98 122 2 -2 -5 -19 -16 -37z m23 -111 c-2 -32
-13 -47 -36 -47 -24 0 -24 11 2 44 25 32 35 33 34 3z"/>
<path d="M1560 709 c0 -5 5 -7 10 -4 6 3 10 8 10 11 0 2 -4 4 -10 4 -5 0 -10
-5 -10 -11z"/>
<path d="M1282 261 c-8 -24 -15 -28 -33 -24 -19 5 -21 3 -16 -23 12 -60 12
-67 0 -71 -7 -3 -13 4 -14 14 0 10 -3 13 -6 6 -7 -20 -23 -15 -23 7 0 13 -5
17 -14 14 -21 -8 -43 35 -25 48 11 8 11 9 -1 5 -15 -4 -16 -20 -4 -71 5 -22 4
-28 -7 -24 -8 3 -12 14 -11 24 2 10 2 17 0 14 -2 -3 -10 -14 -18 -24 -10 -13
-10 -17 -2 -12 6 4 12 2 12 -3 0 -14 37 -15 42 -1 2 6 20 5 47 -2 33 -8 46 -8
49 0 2 6 9 9 15 6 8 -3 12 9 13 33 1 21 4 55 8 76 7 44 2 48 -12 8z m-12 -63
c0 -17 -3 -18 -15 -8 -8 7 -15 19 -15 26 0 8 6 11 15 8 8 -4 15 -15 15 -26z"/>
<path d="M662 258 c-5 -7 -16 -33 -23 -58 -7 -25 -17 -51 -22 -58 -7 -8 -7
-16 0 -23 6 -6 19 17 36 68 26 78 29 94 9 71z"/>
<path d="M1024 240 c-4 -16 -13 -35 -20 -41 -8 -6 -14 -21 -14 -34 0 -18 6
-22 30 -23 16 0 32 4 36 9 3 6 12 3 21 -8 12 -15 14 -15 10 -2 -3 9 1 27 10
39 11 15 12 25 5 32 -8 8 -17 0 -32 -26 -12 -20 -25 -36 -30 -36 -4 0 -7 18
-7 40 0 22 4 37 8 34 5 -3 9 6 9 20 0 36 -19 33 -26 -4z m-4 -69 c0 -6 -4 -13
-10 -16 -5 -3 -10 1 -10 9 0 9 5 16 10 16 6 0 10 -4 10 -9z"/>
<path d="M569 218 c0 -7 -4 -34 -8 -60 -4 -27 -5 -48 -1 -48 4 0 11 21 15 47
5 33 9 42 16 32 10 -16 12 1 3 25 -7 19 -24 21 -25 4z"/>
<path d="M1346 222 c-8 -13 5 -52 15 -46 12 7 12 54 0 54 -6 0 -12 -4 -15 -8z"/>
<path d="M739 191 c-1 -12 -2 -25 -3 -31 -1 -5 4 -10 9 -10 12 0 14 49 3 56
-4 3 -9 -4 -9 -15z"/>
<path d="M822 181 c-13 -36 8 -62 32 -42 8 7 29 11 47 9 22 -2 33 2 36 12 4
13 3 13 -7 0 -9 -12 -11 -10 -6 11 4 20 1 29 -11 34 -17 6 -30 -5 -60 -51 -11
-17 -12 -15 -12 14 -1 23 3 31 11 26 7 -4 8 -3 4 4 -12 20 -23 14 -34 -17z
m88 0 c0 -6 -4 -13 -10 -16 -5 -3 -10 1 -10 9 0 9 5 16 10 16 6 0 10 -4 10 -9z"/>
<path d="M662 178 c2 -12 8 -23 14 -25 7 -2 10 6 7 22 -6 30 -26 34 -21 3z"/>
<path d="M703 184 c-7 -11 -8 -26 -3 -33 13 -23 26 -8 20 24 -6 28 -6 29 -17
9z"/>
<path d="M767 183 c-9 -16 13 -53 30 -52 11 0 13 3 6 6 -7 2 -13 16 -13 29 0
23 -14 33 -23 17z"/>
<path d="M1306 178 c-4 -9 -5 -22 -1 -28 8 -13 32 -13 40 0 3 5 0 7 -9 4 -10
-4 -16 2 -18 18 -4 19 -6 20 -12 6z"/>
<path d="M1370 161 c0 -11 5 -23 10 -26 12 -8 40 12 40 28 0 6 -7 2 -15 -9
-14 -19 -14 -18 -15 4 0 12 -4 22 -10 22 -5 0 -10 -9 -10 -19z"/>
</g>
</svg>
